<svg xmlns="http://www.w3.org/2000/svg" width="1054" height="138" viewBox="0 0 1054 138" font-family="ui-monospace,SFMono-Regular,Menlo,monospace">
<rect fill="#0c1210" width="1054" height="138" rx="6"/>
<text x="18" y="26" fill="#e5e9e3" font-size="15" font-weight="700">SALT</text><text x="72" y="26" fill="#7a867f" font-size="12.5">height 279 &#183; difficulty 130,225,822,727 &#183; 1024 puzzles per block</text><rect x="18" y="44" width="148" height="76" rx="4" fill="#131b17" stroke="#28332e" stroke-width="1"/><text x="29" y="65" fill="#d9a64c" font-size="13" font-weight="700">#274</text><text x="29" y="81" fill="#e5e9e3" font-size="10">ffa436c3633b22fc&#8230;</text><text x="29" y="96" fill="#5cab9b" font-size="10.5">@StevenQinDev</text><text x="29" y="110" fill="#7a867f" font-size="9">纸上得来终觉浅，绝知此…</text><line x1="166" y1="82.0" x2="192" y2="82.0" stroke="#38443e" stroke-width="1.5" stroke-dasharray="3 3"/><rect x="192" y="44" width="148" height="76" rx="4" fill="#131b17" stroke="#28332e" stroke-width="1"/><text x="203" y="65" fill="#d9a64c" font-size="13" font-weight="700">#275</text><text x="203" y="81" fill="#e5e9e3" font-size="10">dee3677de5f8e415&#8230;</text><text x="203" y="96" fill="#5cab9b" font-size="10.5">@StevenQinDev</text><text x="203" y="110" fill="#7a867f" font-size="9">天下事有难易乎？为之，…</text><line x1="340" y1="82.0" x2="366" y2="82.0" stroke="#38443e" stroke-width="1.5" stroke-dasharray="3 3"/><rect x="366" y="44" width="148" height="76" rx="4" fill="#131b17" stroke="#28332e" stroke-width="1"/><text x="377" y="65" fill="#d9a64c" font-size="13" font-weight="700">#276</text><text x="377" y="81" fill="#e5e9e3" font-size="10">4d19d40fec5ea17b&#8230;</text><text x="377" y="96" fill="#5cab9b" font-size="10.5">@StevenQinDev</text><text x="377" y="110" fill="#7a867f" font-size="9">路漫漫其修远兮，吾将上…</text><line x1="514" y1="82.0" x2="540" y2="82.0" stroke="#38443e" stroke-width="1.5" stroke-dasharray="3 3"/><rect x="540" y="44" width="148" height="76" rx="4" fill="#131b17" stroke="#28332e" stroke-width="1"/><text x="551" y="65" fill="#d9a64c" font-size="13" font-weight="700">#277</text><text x="551" y="81" fill="#e5e9e3" font-size="10">e11864a928595160&#8230;</text><text x="551" y="96" fill="#5cab9b" font-size="10.5">@StevenQinDev</text><text x="551" y="110" fill="#7a867f" font-size="9">知之为知之，不知为不知…</text><line x1="688" y1="82.0" x2="714" y2="82.0" stroke="#38443e" stroke-width="1.5" stroke-dasharray="3 3"/><rect x="714" y="44" width="148" height="76" rx="4" fill="#131b17" stroke="#28332e" stroke-width="1"/><text x="725" y="65" fill="#d9a64c" font-size="13" font-weight="700">#278</text><text x="725" y="81" fill="#e5e9e3" font-size="10">f42c704fba229507&#8230;</text><text x="725" y="96" fill="#5cab9b" font-size="10.5">@StevenQinDev</text><text x="725" y="110" fill="#7a867f" font-size="9">千里之行，始于足下</text><line x1="862" y1="82.0" x2="888" y2="82.0" stroke="#38443e" stroke-width="1.5" stroke-dasharray="3 3"/><rect x="888" y="44" width="148" height="76" rx="4" fill="#131b17" stroke="#28332e" stroke-width="1"/><text x="899" y="65" fill="#d9a64c" font-size="13" font-weight="700">#279</text><text x="899" y="81" fill="#e5e9e3" font-size="10">74043c24a6566725&#8230;</text><text x="899" y="96" fill="#5cab9b" font-size="10.5">@StevenQinDev</text><text x="899" y="110" fill="#7a867f" font-size="9">不积跬步，无以至千里</text></svg>
