<svg xmlns="http://www.w3.org/2000/svg" width="1054" height="138" viewBox="0 0 1054 138" font-family="ui-monospace,SFMono-Regular,Menlo,monospace">
<rect fill="#0c1210" width="1054" height="138" rx="6"/>
<text x="18" y="26" fill="#e5e9e3" font-size="15" font-weight="700">SALT</text><text x="72" y="26" fill="#7a867f" font-size="12.5">height 1450 &#183; difficulty 11,319,653,735,270,430,639,632,999,900,390,018,262,165,624,205,556,580,352 &#183; 1024 puzzles per block</text><rect x="18" y="44" width="148" height="76" rx="4" fill="#131b17" stroke="#28332e" stroke-width="1"/><text x="29" y="65" fill="#d9a64c" font-size="13" font-weight="700">#1445</text><text x="29" y="81" fill="#e5e9e3" font-size="10">69e6530683f636e2&#8230;</text><text x="29" y="96" fill="#5cab9b" font-size="10.5">@sxxso</text><text x="29" y="110" fill="#7a867f" font-size="9">何须再借他人骨</text><line x1="166" y1="82.0" x2="192" y2="82.0" stroke="#38443e" stroke-width="1.5" stroke-dasharray="3 3"/><rect x="192" y="44" width="148" height="76" rx="4" fill="#131b17" stroke="#28332e" stroke-width="1"/><text x="203" y="65" fill="#d9a64c" font-size="13" font-weight="700">#1446</text><text x="203" y="81" fill="#e5e9e3" font-size="10">7604bb3c3dcc3a8f&#8230;</text><text x="203" y="96" fill="#5cab9b" font-size="10.5">@sxxso</text><text x="203" y="110" fill="#7a867f" font-size="9">何须再借他人骨</text><line x1="340" y1="82.0" x2="366" y2="82.0" stroke="#38443e" stroke-width="1.5" stroke-dasharray="3 3"/><rect x="366" y="44" width="148" height="76" rx="4" fill="#131b17" stroke="#28332e" stroke-width="1"/><text x="377" y="65" fill="#d9a64c" font-size="13" font-weight="700">#1447</text><text x="377" y="81" fill="#e5e9e3" font-size="10">3015bfd013b56c6f&#8230;</text><text x="377" y="96" fill="#5cab9b" font-size="10.5">@Heartcoolman</text><text x="377" y="110" fill="#7a867f" font-size="9">常驻筛盐 · 流水线</text><line x1="514" y1="82.0" x2="540" y2="82.0" stroke="#38443e" stroke-width="1.5" stroke-dasharray="3 3"/><rect x="540" y="44" width="148" height="76" rx="4" fill="#131b17" stroke="#28332e" stroke-width="1"/><text x="551" y="65" fill="#d9a64c" font-size="13" font-weight="700">#1448</text><text x="551" y="81" fill="#e5e9e3" font-size="10">da582aa8b25fb67e&#8230;</text><text x="551" y="96" fill="#5cab9b" font-size="10.5">@Heartcoolman</text><text x="551" y="110" fill="#7a867f" font-size="9">常驻筛盐 · 流水线</text><line x1="688" y1="82.0" x2="714" y2="82.0" stroke="#38443e" stroke-width="1.5" stroke-dasharray="3 3"/><rect x="714" y="44" width="148" height="76" rx="4" fill="#131b17" stroke="#28332e" stroke-width="1"/><text x="725" y="65" fill="#d9a64c" font-size="13" font-weight="700">#1449</text><text x="725" y="81" fill="#e5e9e3" font-size="10">aa8a3e0b8e399d12&#8230;</text><text x="725" y="96" fill="#5cab9b" font-size="10.5">@Heartcoolman</text><text x="725" y="110" fill="#7a867f" font-size="9">常驻筛盐 · 流水线</text><line x1="862" y1="82.0" x2="888" y2="82.0" stroke="#38443e" stroke-width="1.5" stroke-dasharray="3 3"/><rect x="888" y="44" width="148" height="76" rx="4" fill="#131b17" stroke="#28332e" stroke-width="1"/><text x="899" y="65" fill="#d9a64c" font-size="13" font-weight="700">#1450</text><text x="899" y="81" fill="#e5e9e3" font-size="10">d63a9cc6b9f2dd60&#8230;</text><text x="899" y="96" fill="#5cab9b" font-size="10.5">@Heartcoolman</text><text x="899" y="110" fill="#7a867f" font-size="9">常驻筛盐 · 流水线</text></svg>
