<svg xmlns="http://www.w3.org/2000/svg" width="1054" height="138" viewBox="0 0 1054 138" font-family="ui-monospace,SFMono-Regular,Menlo,monospace">
<rect fill="#f1f3ef" width="1054" height="138" rx="6"/>
<text x="18" y="26" fill="#121916" font-size="15" font-weight="700">SALT</text><text x="72" y="26" fill="#68746e" font-size="12.5">height 991 &#183; difficulty 39,272,938,149,004,339,157,658,454,927,089,860,608 &#183; 1024 puzzles per block</text><rect x="18" y="44" width="148" height="76" rx="4" fill="#ffffff" stroke="#d5dbd2" stroke-width="1"/><text x="29" y="65" fill="#8a5f10" font-size="13" font-weight="700">#986</text><text x="29" y="81" fill="#121916" font-size="10">3ac5280ee3cd285d&#8230;</text><text x="29" y="96" fill="#1c5b52" font-size="10.5">@Heartcoolman</text><text x="29" y="110" fill="#68746e" font-size="9">常驻筛盐 · 流水线</text><line x1="166" y1="82.0" x2="192" y2="82.0" stroke="#b3bcb4" stroke-width="1.5" stroke-dasharray="3 3"/><rect x="192" y="44" width="148" height="76" rx="4" fill="#ffffff" stroke="#d5dbd2" stroke-width="1"/><text x="203" y="65" fill="#8a5f10" font-size="13" font-weight="700">#987</text><text x="203" y="81" fill="#121916" font-size="10">4705e51413b333cc&#8230;</text><text x="203" y="96" fill="#1c5b52" font-size="10.5">@Heartcoolman</text><text x="203" y="110" fill="#68746e" font-size="9">常驻筛盐 · 流水线</text><line x1="340" y1="82.0" x2="366" y2="82.0" stroke="#b3bcb4" stroke-width="1.5" stroke-dasharray="3 3"/><rect x="366" y="44" width="148" height="76" rx="4" fill="#ffffff" stroke="#d5dbd2" stroke-width="1"/><text x="377" y="65" fill="#8a5f10" font-size="13" font-weight="700">#988</text><text x="377" y="81" fill="#121916" font-size="10">181ee767841a19aa&#8230;</text><text x="377" y="96" fill="#1c5b52" font-size="10.5">@Heartcoolman</text><text x="377" y="110" fill="#68746e" font-size="9">常驻筛盐 · 流水线</text><line x1="514" y1="82.0" x2="540" y2="82.0" stroke="#b3bcb4" stroke-width="1.5" stroke-dasharray="3 3"/><rect x="540" y="44" width="148" height="76" rx="4" fill="#ffffff" stroke="#d5dbd2" stroke-width="1"/><text x="551" y="65" fill="#8a5f10" font-size="13" font-weight="700">#989</text><text x="551" y="81" fill="#121916" font-size="10">37129190a209c25a&#8230;</text><text x="551" y="96" fill="#1c5b52" font-size="10.5">@Heartcoolman</text><text x="551" y="110" fill="#68746e" font-size="9">常驻筛盐 · 流水线</text><line x1="688" y1="82.0" x2="714" y2="82.0" stroke="#b3bcb4" stroke-width="1.5" stroke-dasharray="3 3"/><rect x="714" y="44" width="148" height="76" rx="4" fill="#ffffff" stroke="#d5dbd2" stroke-width="1"/><text x="725" y="65" fill="#8a5f10" font-size="13" font-weight="700">#990</text><text x="725" y="81" fill="#121916" font-size="10">c088fd8dfa11bdc6&#8230;</text><text x="725" y="96" fill="#1c5b52" font-size="10.5">@Heartcoolman</text><text x="725" y="110" fill="#68746e" font-size="9">常驻筛盐 · 流水线</text><line x1="862" y1="82.0" x2="888" y2="82.0" stroke="#b3bcb4" stroke-width="1.5" stroke-dasharray="3 3"/><rect x="888" y="44" width="148" height="76" rx="4" fill="#ffffff" stroke="#d5dbd2" stroke-width="1"/><text x="899" y="65" fill="#8a5f10" font-size="13" font-weight="700">#991</text><text x="899" y="81" fill="#121916" font-size="10">6baa2c31c52e2ba1&#8230;</text><text x="899" y="96" fill="#1c5b52" font-size="10.5">@Heartcoolman</text><text x="899" y="110" fill="#68746e" font-size="9">常驻筛盐 · 流水线</text></svg>
