<svg xmlns="http://www.w3.org/2000/svg" width="1054" height="138" viewBox="0 0 1054 138" font-family="ui-monospace,SFMono-Regular,Menlo,monospace">
<rect fill="#0c1210" width="1054" height="138" rx="6"/>
<text x="18" y="26" fill="#e5e9e3" font-size="15" font-weight="700">SALT</text><text x="72" y="26" fill="#7a867f" font-size="12.5">height 1258 &#183; difficulty 674,703,939,871,217,646,576,941,007,398,964,063,058,234,703,872 &#183; 1024 puzzles per block</text><rect x="18" y="44" width="148" height="76" rx="4" fill="#131b17" stroke="#28332e" stroke-width="1"/><text x="29" y="65" fill="#d9a64c" font-size="13" font-weight="700">#1253</text><text x="29" y="81" fill="#e5e9e3" font-size="10">b47eedf633cd720d&#8230;</text><text x="29" y="96" fill="#5cab9b" font-size="10.5">@Heartcoolman</text><text x="29" y="110" fill="#7a867f" font-size="9">常驻筛盐 · 流水线</text><line x1="166" y1="82.0" x2="192" y2="82.0" stroke="#38443e" stroke-width="1.5" stroke-dasharray="3 3"/><rect x="192" y="44" width="148" height="76" rx="4" fill="#131b17" stroke="#28332e" stroke-width="1"/><text x="203" y="65" fill="#d9a64c" font-size="13" font-weight="700">#1254</text><text x="203" y="81" fill="#e5e9e3" font-size="10">cf1977f57c6dcb0c&#8230;</text><text x="203" y="96" fill="#5cab9b" font-size="10.5">@Heartcoolman</text><text x="203" y="110" fill="#7a867f" font-size="9">常驻筛盐 · 流水线</text><line x1="340" y1="82.0" x2="366" y2="82.0" stroke="#38443e" stroke-width="1.5" stroke-dasharray="3 3"/><rect x="366" y="44" width="148" height="76" rx="4" fill="#131b17" stroke="#28332e" stroke-width="1"/><text x="377" y="65" fill="#d9a64c" font-size="13" font-weight="700">#1255</text><text x="377" y="81" fill="#e5e9e3" font-size="10">76fa745ca92c78c1&#8230;</text><text x="377" y="96" fill="#5cab9b" font-size="10.5">@Heartcoolman</text><text x="377" y="110" fill="#7a867f" font-size="9">常驻筛盐 · 流水线</text><line x1="514" y1="82.0" x2="540" y2="82.0" stroke="#38443e" stroke-width="1.5" stroke-dasharray="3 3"/><rect x="540" y="44" width="148" height="76" rx="4" fill="#131b17" stroke="#28332e" stroke-width="1"/><text x="551" y="65" fill="#d9a64c" font-size="13" font-weight="700">#1256</text><text x="551" y="81" fill="#e5e9e3" font-size="10">5a07fe2e1c4217a4&#8230;</text><text x="551" y="96" fill="#5cab9b" font-size="10.5">@Heartcoolman</text><text x="551" y="110" fill="#7a867f" font-size="9">常驻筛盐 · 流水线</text><line x1="688" y1="82.0" x2="714" y2="82.0" stroke="#38443e" stroke-width="1.5" stroke-dasharray="3 3"/><rect x="714" y="44" width="148" height="76" rx="4" fill="#131b17" stroke="#28332e" stroke-width="1"/><text x="725" y="65" fill="#d9a64c" font-size="13" font-weight="700">#1257</text><text x="725" y="81" fill="#e5e9e3" font-size="10">36d5c6c0bd01c7b5&#8230;</text><text x="725" y="96" fill="#5cab9b" font-size="10.5">@Heartcoolman</text><text x="725" y="110" fill="#7a867f" font-size="9">常驻筛盐 · 流水线</text><line x1="862" y1="82.0" x2="888" y2="82.0" stroke="#38443e" stroke-width="1.5" stroke-dasharray="3 3"/><rect x="888" y="44" width="148" height="76" rx="4" fill="#131b17" stroke="#28332e" stroke-width="1"/><text x="899" y="65" fill="#d9a64c" font-size="13" font-weight="700">#1258</text><text x="899" y="81" fill="#e5e9e3" font-size="10">2caca6cbfc06ba15&#8230;</text><text x="899" y="96" fill="#5cab9b" font-size="10.5">@Heartcoolman</text><text x="899" y="110" fill="#7a867f" font-size="9">常驻筛盐 · 流水线</text></svg>
