<svg xmlns="http://www.w3.org/2000/svg" width="1054" height="138" viewBox="0 0 1054 138" font-family="ui-monospace,SFMono-Regular,Menlo,monospace">
<rect fill="#0c1210" width="1054" height="138" rx="6"/>
<text x="18" y="26" fill="#e5e9e3" font-size="15" font-weight="700">SALT</text><text x="72" y="26" fill="#7a867f" font-size="12.5">height 1501 &#183; difficulty 3,000 &#183; 3000 puzzles per block</text><rect x="18" y="44" width="148" height="76" rx="4" fill="#131b17" stroke="#28332e" stroke-width="1"/><text x="29" y="65" fill="#d9a64c" font-size="13" font-weight="700">#1496</text><text x="29" y="81" fill="#e5e9e3" font-size="10">c1a8108a1d4ad116&#8230;</text><text x="29" y="96" fill="#5cab9b" font-size="10.5">@Heartcoolman</text><text x="29" y="110" fill="#7a867f" font-size="9">常驻筛盐 · 流水线</text><line x1="166" y1="82.0" x2="192" y2="82.0" stroke="#38443e" stroke-width="1.5" stroke-dasharray="3 3"/><rect x="192" y="44" width="148" height="76" rx="4" fill="#131b17" stroke="#28332e" stroke-width="1"/><text x="203" y="65" fill="#d9a64c" font-size="13" font-weight="700">#1497</text><text x="203" y="81" fill="#e5e9e3" font-size="10">a06ce6c878e6feb5&#8230;</text><text x="203" y="96" fill="#5cab9b" font-size="10.5">@Heartcoolman</text><text x="203" y="110" fill="#7a867f" font-size="9">常驻筛盐 · 流水线</text><line x1="340" y1="82.0" x2="366" y2="82.0" stroke="#38443e" stroke-width="1.5" stroke-dasharray="3 3"/><rect x="366" y="44" width="148" height="76" rx="4" fill="#131b17" stroke="#28332e" stroke-width="1"/><text x="377" y="65" fill="#d9a64c" font-size="13" font-weight="700">#1498</text><text x="377" y="81" fill="#e5e9e3" font-size="10">065f6f6e17191c2b&#8230;</text><text x="377" y="96" fill="#5cab9b" font-size="10.5">@yannicksong0106</text><text x="377" y="110" fill="#7a867f" font-size="9">something for nothing …</text><line x1="514" y1="82.0" x2="540" y2="82.0" stroke="#38443e" stroke-width="1.5" stroke-dasharray="3 3"/><rect x="540" y="44" width="148" height="76" rx="4" fill="#131b17" stroke="#28332e" stroke-width="1"/><text x="551" y="65" fill="#d9a64c" font-size="13" font-weight="700">#1499</text><text x="551" y="81" fill="#e5e9e3" font-size="10">b25c2aea2d1d27ab&#8230;</text><text x="551" y="96" fill="#5cab9b" font-size="10.5">@yannicksong0106</text><text x="551" y="110" fill="#7a867f" font-size="9">something for nothing …</text><line x1="688" y1="82.0" x2="714" y2="82.0" stroke="#38443e" stroke-width="1.5" stroke-dasharray="3 3"/><rect x="714" y="44" width="148" height="76" rx="4" fill="#131b17" stroke="#28332e" stroke-width="1"/><text x="725" y="65" fill="#d9a64c" font-size="13" font-weight="700">#1500</text><text x="725" y="81" fill="#e5e9e3" font-size="10">3347d47bfa0c8d24&#8230;</text><text x="725" y="96" fill="#5cab9b" font-size="10.5">@Heartcoolman</text><text x="725" y="110" fill="#7a867f" font-size="9">常驻筛盐 · 流水线</text><line x1="862" y1="82.0" x2="888" y2="82.0" stroke="#38443e" stroke-width="1.5" stroke-dasharray="3 3"/><rect x="888" y="44" width="148" height="76" rx="4" fill="#131b17" stroke="#28332e" stroke-width="1"/><text x="899" y="65" fill="#d9a64c" font-size="13" font-weight="700">#1501</text><text x="899" y="81" fill="#e5e9e3" font-size="10">222ea1c43b5cbcec&#8230;</text><text x="899" y="96" fill="#5cab9b" font-size="10.5">@yannicksong0106</text><text x="899" y="110" fill="#7a867f" font-size="9">something for nothing …</text></svg>
