<svg xmlns="http://www.w3.org/2000/svg" width="1054" height="138" viewBox="0 0 1054 138" font-family="ui-monospace,SFMono-Regular,Menlo,monospace">
<rect fill="#f1f3ef" width="1054" height="138" rx="6"/>
<text x="18" y="26" fill="#121916" font-size="15" font-weight="700">SALT</text><text x="72" y="26" fill="#68746e" font-size="12.5">height 3650 &#183; difficulty 1,337 &#183; 1336 puzzles per block</text><rect x="18" y="44" width="148" height="76" rx="4" fill="#ffffff" stroke="#d5dbd2" stroke-width="1"/><text x="29" y="65" fill="#8a5f10" font-size="13" font-weight="700">#3645</text><text x="29" y="81" fill="#121916" font-size="10">78796977e151228e&#8230;</text><text x="29" y="96" fill="#1c5b52" font-size="10.5">@Heartcoolman</text><text x="29" y="110" fill="#68746e" font-size="9">常驻筛盐 · 流水线</text><line x1="166" y1="82.0" x2="192" y2="82.0" stroke="#b3bcb4" stroke-width="1.5" stroke-dasharray="3 3"/><rect x="192" y="44" width="148" height="76" rx="4" fill="#ffffff" stroke="#d5dbd2" stroke-width="1"/><text x="203" y="65" fill="#8a5f10" font-size="13" font-weight="700">#3646</text><text x="203" y="81" fill="#121916" font-size="10">9534f89ba4381dbf&#8230;</text><text x="203" y="96" fill="#1c5b52" font-size="10.5">@yannicksong0106</text><text x="203" y="110" fill="#68746e" font-size="9">something for nothing …</text><line x1="340" y1="82.0" x2="366" y2="82.0" stroke="#b3bcb4" stroke-width="1.5" stroke-dasharray="3 3"/><rect x="366" y="44" width="148" height="76" rx="4" fill="#ffffff" stroke="#d5dbd2" stroke-width="1"/><text x="377" y="65" fill="#8a5f10" font-size="13" font-weight="700">#3647</text><text x="377" y="81" fill="#121916" font-size="10">d67f79809f45b403&#8230;</text><text x="377" y="96" fill="#1c5b52" font-size="10.5">@szfzmzx</text><text x="377" y="110" fill="#68746e" font-size="9">大佬们别挖了，快休息，…</text><line x1="514" y1="82.0" x2="540" y2="82.0" stroke="#b3bcb4" stroke-width="1.5" stroke-dasharray="3 3"/><rect x="540" y="44" width="148" height="76" rx="4" fill="#ffffff" stroke="#d5dbd2" stroke-width="1"/><text x="551" y="65" fill="#8a5f10" font-size="13" font-weight="700">#3648</text><text x="551" y="81" fill="#121916" font-size="10">03110e5d9b6f153e&#8230;</text><text x="551" y="96" fill="#1c5b52" font-size="10.5">@szfzmzx</text><text x="551" y="110" fill="#68746e" font-size="9">大佬们别挖了，快休息，…</text><line x1="688" y1="82.0" x2="714" y2="82.0" stroke="#b3bcb4" stroke-width="1.5" stroke-dasharray="3 3"/><rect x="714" y="44" width="148" height="76" rx="4" fill="#ffffff" stroke="#d5dbd2" stroke-width="1"/><text x="725" y="65" fill="#8a5f10" font-size="13" font-weight="700">#3649</text><text x="725" y="81" fill="#121916" font-size="10">0b60d46437053bf7&#8230;</text><text x="725" y="96" fill="#1c5b52" font-size="10.5">@yannicksong0106</text><text x="725" y="110" fill="#68746e" font-size="9">something for nothing …</text><line x1="862" y1="82.0" x2="888" y2="82.0" stroke="#b3bcb4" stroke-width="1.5" stroke-dasharray="3 3"/><rect x="888" y="44" width="148" height="76" rx="4" fill="#ffffff" stroke="#d5dbd2" stroke-width="1"/><text x="899" y="65" fill="#8a5f10" font-size="13" font-weight="700">#3650</text><text x="899" y="81" fill="#121916" font-size="10">3041abba34218b7a&#8230;</text><text x="899" y="96" fill="#1c5b52" font-size="10.5">@Heartcoolman</text><text x="899" y="110" fill="#68746e" font-size="9">常驻筛盐 · 流水线</text></svg>
